<?xml version="1.0" standalone="no"?>
<!DOCTYPE svg PUBLIC "-//W3C//DTD SVG 20010904//EN"
 "http://www.w3.org/TR/2001/REC-SVG-20010904/DTD/svg10.dtd">
<svg version="1.0" xmlns="http://www.w3.org/2000/svg"
 width="640.000000pt" height="517.000000pt" viewBox="0 0 640.000000 517.000000"
 preserveAspectRatio="xMidYMid meet">

<g transform="translate(0.000000,517.000000) scale(0.100000,-0.100000)"
fill="#000000" stroke="none">
<path d="M2900 5159 c-420 -58 -834 -219 -1175 -458 -165 -115 -409 -347 -544
-516 -211 -263 -384 -605 -476 -940 -354 -1293 349 -2656 1615 -3130 63 -24
158 -56 210 -72 l95 -28 610 0 610 0 117 37 c469 150 817 362 1145 699 398
408 648 927 718 1489 20 163 20 487 0 650 -48 386 -189 768 -403 1096 -101
154 -181 252 -317 393 -409 421 -925 687 -1499 772 -105 15 -182 19 -386 18
-140 -1 -284 -5 -320 -10z m675 -104 c155 -24 281 -52 390 -86 711 -220 1283
-732 1580 -1413 121 -279 190 -589 202 -911 7 -202 -6 -361 -47 -565 -101
-508 -325 -926 -690 -1290 -389 -388 -834 -615 -1395 -712 -176 -30 -570 -33
-740 -5 -405 67 -724 189 -1037 395 -156 103 -249 181 -400 332 -417 420 -659
943 -719 1559 -23 236 5 574 70 828 80 313 233 629 432 895 107 143 336 372
479 479 367 276 780 444 1225 498 50 6 104 13 120 15 67 9 435 -4 530 -19z"/>
<path d="M3000 4960 c-217 -21 -478 -86 -669 -167 -58 -24 -114 -47 -123 -50
-20 -6 -24 -28 -8 -38 6 -4 70 18 143 48 294 122 545 169 887 169 343 0 604
-51 910 -179 57 -24 110 -41 117 -39 22 9 14 31 -14 43 -181 75 -244 99 -347
129 -205 59 -382 85 -611 89 -110 2 -238 0 -285 -5z"/>
<path d="M2028 4652 c-52 -29 -52 -30 -38 -52 7 -12 15 -11 52 9 56 31 60 35
52 54 -8 21 -9 21 -66 -11z"/>
<path d="M4366 4663 c-8 -21 6 -36 54 -58 29 -13 44 -15 51 -8 16 16 4 30 -51
58 -42 21 -49 22 -54 8z"/>
<path d="M3101 4569 c-83 -13 -169 -42 -256 -86 -106 -54 -153 -89 -240 -178
-95 -96 -155 -197 -201 -334 l-32 -96 -54 -5 c-71 -7 -129 -44 -157 -102 -19
-41 -21 -61 -21 -247 0 -219 3 -235 59 -294 41 -45 82 -57 196 -57 l102 0 31
-49 c39 -64 135 -135 203 -151 74 -18 185 -9 242 20 88 44 156 126 187 225 16
51 34 65 86 65 71 0 88 -12 103 -68 27 -108 136 -217 242 -242 74 -18 185 -9
243 21 57 28 115 82 151 139 l25 40 74 0 c88 0 119 10 164 53 60 57 62 65 62
300 l0 213 -29 46 c-33 51 -75 79 -135 87 -39 6 -40 7 -61 76 -54 170 -116
279 -224 386 -163 162 -339 237 -576 244 -66 2 -149 -1 -184 -6z m527 -653
c70 -55 99 -67 182 -75 l65 -6 3 -99 c1 -55 1 -105 -2 -112 -3 -9 -20 -6 -63
12 -114 47 -249 25 -352 -56 -57 -45 -115 -150 -126 -227 l-6 -48 -75 0 c-82
0 -75 -6 -89 75 -8 54 -48 131 -91 174 -37 38 -37 39 -11 33 15 -4 38 -10 52
-13 37 -9 31 11 -19 67 -51 57 -81 116 -89 179 l-7 45 27 -35 c63 -82 160
-167 226 -199 69 -33 171 -60 183 -48 4 3 -16 35 -45 69 -52 64 -81 132 -81
194 0 68 9 69 67 5 60 -67 141 -113 239 -136 82 -19 90 -6 31 50 -26 25 -53
58 -61 73 -15 30 -31 122 -21 122 4 0 32 -20 63 -44z m-919 -79 c30 -54 101
-131 146 -155 l30 -17 -55 -3 c-76 -3 -138 -20 -185 -51 -22 -15 -46 -30 -52
-35 -10 -6 -13 24 -13 138 0 165 6 179 68 174 31 -3 39 -9 61 -51z m243 -235
c62 -28 119 -82 153 -143 27 -49 30 -62 30 -149 0 -80 -4 -102 -23 -140 -32
-61 -87 -116 -147 -148 -43 -23 -62 -27 -140 -27 -76 0 -97 4 -139 25 -116 59
-180 163 -180 290 0 146 84 259 229 307 53 17 162 10 217 -15z m860 0 c69 -30
131 -93 163 -163 24 -54 27 -71 23 -142 -4 -98 -30 -158 -94 -217 -74 -68
-117 -85 -219 -85 -76 0 -97 4 -139 25 -114 58 -178 162 -179 289 -1 147 83
259 228 308 54 18 160 11 217 -15z"/>
<path d="M3760 3552 c0 -14 149 -156 157 -149 4 4 -26 41 -67 82 -70 71 -90
85 -90 67z"/>
<path d="M3670 3542 c0 -14 229 -236 237 -229 7 8 -215 237 -229 237 -5 0 -8
-3 -8 -8z"/>
<path d="M1840 4533 c-279 -212 -453 -391 -613 -631 -81 -121 -182 -312 -235
-442 -73 -180 -142 -455 -158 -632 -7 -75 -6 -78 15 -78 11 0 21 6 21 13 0 29
40 278 55 342 121 521 431 998 868 1334 74 57 106 88 103 98 -3 8 -6 17 -6 19
0 9 -17 1 -50 -23z"/>
<path d="M4571 4542 c-8 -16 2 -27 72 -79 415 -307 726 -759 866 -1258 29
-106 62 -276 76 -397 6 -49 10 -58 27 -58 19 0 20 4 13 73 -43 442 -237 907
-527 1265 -90 111 -246 265 -373 366 -137 109 -141 112 -154 88z"/>
<path d="M3795 2874 c-559 -255 -560 -256 -575 -234 -89 128 -171 196 -280
232 -59 19 -96 22 -425 28 -322 7 -369 10 -449 29 -48 12 -90 21 -92 19 -1 -2
-19 -61 -38 -131 -19 -69 -38 -131 -41 -137 -4 -6 -19 -9 -34 -5 -60 13 -113
-35 -126 -117 -9 -49 9 -95 44 -112 29 -15 150 -50 1066 -301 192 -53 213 -61
240 -91 36 -41 70 -54 136 -54 62 0 112 20 134 54 20 31 -24 17 719 221 314
86 582 163 598 171 52 27 62 86 29 161 -22 48 -64 74 -113 71 l-33 -3 -36 135
c-31 114 -39 135 -55 134 -11 -1 -248 -63 -527 -138 -280 -75 -514 -136 -520
-136 -22 0 20 20 486 232 402 182 498 230 460 228 -5 -1 -260 -116 -568 -256z
m-1241 -99 c303 -80 575 -153 604 -161 l52 -15 0 -140 0 -140 -22 7 c-13 4
-301 80 -642 170 -340 90 -621 165 -624 168 -8 9 60 256 71 256 5 0 257 -65
561 -145z m1944 30 c18 -64 32 -122 32 -130 0 -8 -16 -19 -37 -24 -21 -6 -303
-80 -628 -166 -324 -85 -598 -158 -607 -161 -17 -5 -18 6 -18 135 l0 140 43
12 c248 68 1156 308 1168 308 12 1 24 -28 47 -114z m-1617 61 c36 -8 87 -24
114 -37 78 -37 213 -174 192 -195 -8 -8 -897 229 -897 239 0 14 520 8 591 -7z"/>
<path d="M2010 2872 c0 -8 1132 -313 1160 -312 8 0 10 3 5 9 -10 9 -1131 311
-1154 311 -6 0 -11 -4 -11 -8z"/>
<path d="M1990 2812 c0 -10 1180 -325 1188 -318 3 3 3 8 1 11 -6 5 -1163 315
-1178 315 -6 0 -11 -4 -11 -8z"/>
<path d="M1976 2751 c9 -8 1169 -321 1192 -321 55 0 -65 36 -580 173 -326 86
-600 157 -607 157 -9 0 -11 -3 -5 -9z"/>
<path d="M1956 2702 c-3 -5 20 -17 52 -25 235 -65 1152 -307 1163 -307 51 0
-76 38 -591 175 -322 86 -592 158 -602 161 -9 3 -19 1 -22 -4z"/>
<path d="M3840 2729 c-305 -82 -562 -152 -570 -156 -13 -5 -13 -7 2 -10 19 -5
1148 294 1163 308 22 21 -67 0 -595 -142z"/>
<path d="M3847 2665 c-312 -84 -571 -155 -574 -159 -4 -3 -4 -8 -1 -11 6 -7
1170 304 1183 316 22 21 -69 0 -608 -146z"/>
<path d="M3848 2602 c-513 -137 -629 -172 -575 -172 22 0 1182 312 1192 321 5
5 1 9 -10 8 -11 0 -284 -71 -607 -157z"/>
<path d="M3871 2549 c-327 -88 -597 -162 -600 -164 -20 -21 76 2 576 135 312
83 585 156 606 161 34 9 53 30 25 28 -7 0 -280 -72 -607 -160z"/>
<path d="M822 2578 c2 -50 6 -63 21 -66 15 -3 17 5 17 62 0 60 -2 66 -20 66
-19 0 -21 -5 -18 -62z"/>
<path d="M5600 2574 c0 -57 2 -65 18 -62 14 3 18 16 20 66 3 57 1 62 -18 62
-18 0 -20 -6 -20 -66z"/>
<path d="M5597 2403 c-2 -5 -7 -42 -11 -83 -12 -127 -64 -365 -112 -508 -149
-448 -442 -853 -821 -1135 -46 -34 -83 -64 -83 -67 0 -3 4 -11 9 -19 11 -17
60 16 195 128 438 364 729 865 827 1423 10 59 22 144 25 188 6 69 5 80 -9 80
-9 0 -18 -3 -20 -7z"/>
<path d="M830 2368 c0 -44 26 -224 46 -323 23 -111 103 -352 155 -465 142
-309 355 -601 590 -808 117 -102 239 -194 253 -189 30 10 6 39 -86 107 -193
142 -425 396 -564 616 -184 292 -305 637 -345 987 -11 92 -15 107 -31 107 -14
0 -18 -8 -18 -32z"/>
<path d="M2040 1490 l0 -260 140 0 140 0 0 50 0 50 -85 0 -85 0 0 55 0 54 83
3 82 3 0 45 0 45 -82 3 -83 3 0 54 0 55 85 0 85 0 0 50 0 50 -140 0 -140 0 0
-260z"/>
<path d="M2418 1673 c-2 -43 -2 -160 0 -261 l3 -183 52 3 52 3 5 128 5 129 24
-33 c13 -18 54 -74 89 -123 36 -50 70 -94 76 -98 12 -9 146 -11 146 -3 0 3
-47 62 -105 131 l-105 127 22 31 c12 17 53 73 90 123 37 51 68 95 68 98 0 3
-29 5 -64 5 l-63 0 -89 -127 -89 -128 -5 125 -5 125 -52 3 -51 3 -4 -78z"/>
<path d="M2970 1490 l0 -263 103 5 c122 5 177 27 232 91 35 41 65 117 65 167
0 50 -30 126 -65 167 -55 64 -110 86 -232 91 l-103 5 0 -263z m199 144 c104
-41 108 -240 7 -288 -20 -9 -51 -16 -69 -14 l-32 3 -2 145 c-1 80 0 151 2 158
6 17 47 15 94 -4z"/>
<path d="M3468 1673 c-2 -43 -2 -160 0 -261 l3 -183 52 3 52 3 3 98 3 97 69 0
70 0 0 -101 0 -100 53 3 52 3 3 258 2 257 -55 0 -55 0 0 -100 0 -100 -70 0
-69 0 -3 98 -3 97 -52 3 -51 3 -4 -78z"/>
<path d="M4117 1738 c-3 -7 -48 -120 -101 -250 -53 -130 -96 -241 -96 -247 0
-7 23 -11 54 -11 l55 0 19 53 20 52 104 3 104 3 18 -56 17 -55 55 0 c38 0 54
4 54 13 0 8 -44 124 -99 258 l-98 244 -50 3 c-34 2 -52 -1 -56 -10z m87 -223
c14 -36 26 -67 26 -70 0 -3 -27 -5 -61 -5 -54 0 -60 2 -54 18 4 9 16 41 27 70
12 28 24 52 28 52 4 0 20 -29 34 -65z"/>
<path d="M1942 874 c-18 -36 -29 -64 -25 -62 4 2 20 10 35 17 24 12 30 12 46
-2 27 -24 35 -21 28 11 -20 82 -28 102 -39 102 -7 0 -27 -30 -45 -66z m48 2
c0 -17 -14 -29 -23 -20 -8 8 3 34 14 34 5 0 9 -6 9 -14z"/>
<path d="M2076 883 c-4 -34 -3 -60 4 -67 12 -12 11 -16 16 62 6 78 -11 82 -20
5z"/>
<path d="M2145 907 c-8 -41 -3 -92 8 -92 5 0 9 28 11 63 3 66 -9 84 -19 29z"/>
<path d="M2572 915 c-7 -14 -20 -25 -31 -25 -25 0 -43 -24 -39 -52 2 -19 9
-23 41 -24 27 -1 37 3 38 15 0 9 4 37 8 64 9 51 1 61 -17 22z m-12 -66 c0 -12
-7 -19 -20 -19 -22 0 -29 35 -7 43 18 6 27 -2 27 -24z"/>
<path d="M3445 918 c-6 -13 -19 -25 -30 -27 -11 -2 -26 -8 -32 -13 -14 -11
-18 -57 -5 -59 68 -10 71 -9 77 40 4 25 9 54 12 64 7 25 -11 21 -22 -5z m-12
-74 c-6 -16 -29 -19 -38 -4 -4 6 -1 17 5 26 15 18 42 0 33 -22z"/>
<path d="M4088 918 c-2 -15 -13 -24 -34 -30 -58 -15 -50 -76 10 -76 32 0 34 2
40 45 8 63 8 83 -3 83 -5 0 -11 -10 -13 -22z m-11 -72 c-9 -23 -37 -20 -37 3
0 21 20 33 34 20 5 -4 6 -15 3 -23z"/>
<path d="M4166 903 c-9 -56 -8 -99 3 -87 5 5 11 20 13 34 5 38 32 31 39 -10 4
-26 7 -31 13 -18 13 30 3 63 -21 66 -17 3 -23 10 -23 28 0 38 -17 28 -24 -13z"/>
<path d="M2323 905 c-13 -22 -3 -95 12 -95 10 0 12 10 8 35 -3 21 -2 35 5 35
5 0 8 9 5 20 -6 24 -19 26 -30 5z"/>
<path d="M2849 908 c-1 -7 -2 -27 -4 -44 -3 -37 8 -60 24 -49 9 5 9 10 1 20
-8 10 -8 19 -1 34 11 20 5 51 -10 51 -5 0 -9 -6 -10 -12z"/>
<path d="M3843 905 c-13 -22 -3 -95 12 -95 10 0 12 10 8 35 -4 24 -2 35 7 35
9 0 10 3 1 13 -6 8 -8 17 -4 20 3 4 1 7 -5 7 -6 0 -15 -7 -19 -15z"/>
<path d="M2248 882 c-19 -4 -25 -32 -8 -32 6 0 10 -4 10 -10 0 -5 -7 -10 -15
-10 -8 0 -15 -4 -15 -10 0 -15 36 -12 49 4 10 11 8 17 -6 25 -15 9 -16 12 -3
20 18 12 11 19 -12 13z"/>
<path d="M2386 864 c-11 -43 35 -74 62 -41 15 18 26 67 14 67 -5 0 -12 -14
-16 -31 -8 -41 -42 -37 -38 4 4 34 -14 35 -22 1z"/>
<path d="M2626 875 c-9 -9 -16 -22 -16 -29 0 -29 51 -49 65 -25 4 6 0 9 -11 7
-14 -2 -20 4 -22 25 -2 19 1 27 12 27 9 0 16 -7 16 -15 0 -8 5 -15 11 -15 6 0
9 8 7 18 -4 23 -41 27 -62 7z"/>
<path d="M2726 868 c-9 -34 -7 -58 4 -58 6 0 10 11 10 24 0 30 25 53 36 34 5
-7 7 -23 5 -35 -1 -13 2 -23 8 -23 6 0 11 18 11 40 0 39 -1 40 -34 40 -26 0
-35 -5 -40 -22z"/>
<path d="M2938 882 c-21 -4 -23 -13 -6 -30 9 -9 8 -15 -8 -27 -19 -14 -19 -14
2 -15 31 0 48 24 29 40 -13 10 -13 15 -3 21 16 10 8 16 -14 11z"/>
<path d="M3040 876 c-6 -8 -10 -25 -8 -38 2 -19 10 -23 41 -25 29 -2 37 2 37
15 0 9 3 27 6 40 6 20 3 22 -29 22 -19 0 -40 -7 -47 -14z m47 -30 c-9 -23 -37
-20 -37 3 0 21 20 33 34 20 5 -4 6 -15 3 -23z"/>
<path d="M3146 868 c-9 -34 -7 -58 4 -58 6 0 10 11 10 24 0 14 10 32 22 40
l22 16 -26 0 c-18 0 -27 -6 -32 -22z"/>
<path d="M3254 883 c-18 -13 -25 -45 -13 -59 13 -16 49 -19 49 -4 0 6 -5 9
-12 8 -6 -2 -13 9 -14 25 -2 18 2 27 12 27 8 0 14 -7 14 -15 0 -8 5 -15 11
-15 6 0 9 8 7 18 -3 18 -36 27 -54 15z"/>
<path d="M3490 848 c0 -32 3 -39 10 -28 13 20 13 70 0 70 -5 0 -10 -19 -10
-42z"/>
<path d="M3538 854 c-5 -43 8 -55 17 -15 3 15 16 33 28 39 21 10 20 11 -9 11
-29 1 -32 -2 -36 -35z"/>
<path d="M3642 878 c-20 -20 -14 -56 9 -63 12 -4 26 -2 32 4 8 8 5 11 -9 11
-15 0 -20 6 -19 23 1 12 8 22 16 22 8 0 13 -6 12 -12 -2 -7 4 -13 12 -13 8 0
15 4 15 8 0 14 -23 32 -40 32 -9 0 -21 -5 -28 -12z"/>
<path d="M3752 878 c-17 -17 -15 -55 4 -62 23 -9 34 -7 34 4 0 6 -7 10 -15 10
-23 0 -18 36 8 48 21 10 21 11 2 11 -12 1 -26 -4 -33 -11z"/>
<path d="M3916 869 c-11 -16 -12 -27 -5 -41 11 -20 44 -24 54 -7 4 6 0 9 -11
7 -14 -2 -19 3 -19 21 0 14 6 26 13 29 6 2 12 -3 12 -12 0 -9 5 -16 11 -16 6
0 9 8 7 18 -5 26 -43 27 -62 1z"/>
<path d="M4281 876 c-26 -31 13 -86 41 -58 7 8 9 13 3 12 -25 -5 -32 2 -27 25
5 27 32 35 32 10 0 -8 5 -15 11 -15 6 0 9 8 7 18 -4 22 -51 28 -67 8z"/>
<path d="M4380 866 c0 -13 -3 -31 -6 -40 -3 -9 -2 -16 4 -16 6 0 13 14 17 31
4 18 16 34 28 39 19 8 18 9 -10 9 -28 1 -33 -2 -33 -23z"/>
<path d="M4482 878 c-7 -7 -12 -22 -12 -34 0 -26 36 -42 54 -24 6 6 7 11 1 10
-25 -5 -32 2 -27 25 2 14 10 24 16 22 6 -3 10 -10 9 -16 -2 -6 4 -11 13 -11
11 0 14 5 10 16 -3 9 -6 18 -6 20 0 9 -47 3 -58 -8z"/>
<path d="M1980 531 c-8 -17 -3 -23 36 -46 45 -26 74 -28 74 -3 0 7 -23 25 -50
40 -48 27 -50 27 -60 9z"/>
<path d="M4418 522 c-48 -27 -60 -48 -33 -58 13 -5 105 40 105 51 0 11 -13 35
-19 34 -3 0 -27 -12 -53 -27z"/>
<path d="M2182 420 c-10 -17 -1 -22 91 -63 151 -66 256 -101 407 -135 230 -52
277 -57 555 -57 224 1 277 4 385 23 225 40 419 100 623 192 42 18 46 23 37 40
-10 18 -13 19 -43 6 -265 -117 -392 -154 -707 -207 -112 -20 -508 -16 -639 5
-209 33 -432 96 -580 163 -123 55 -116 53 -129 33z"/>
</g>
</svg>
